<svg width="337" height="131" viewBox="0 0 337 131" fill="none" xmlns="http://www.w3.org/2000/svg">
<path fill-rule="evenodd" clip-rule="evenodd" d="M5.00146 0.15266C2.47831 0.858456 1.08801 2.08079 0.275812 4.3074C-0.0637858 5.2382 -0.103668 75.9374 0.233935 78.5705C0.623984 81.6137 1.4316 85.6024 1.92574 86.9258C2.19155 87.6382 2.40911 88.3311 2.40911 88.4657C2.40911 88.8057 4.10471 92.315 4.76077 93.3328C6.47391 95.9906 9.24413 99.0167 11.0055 100.154C11.4871 100.466 11.926 100.768 11.9809 100.827C12.1085 100.965 14.5754 102.412 14.6817 102.412C14.7258 102.412 15.2801 102.646 15.9138 102.932C18.1339 103.935 18.3802 104.025 19.712 104.326C23.4695 105.174 24.7831 105.351 28.5465 105.514C33.1412 105.713 37.7901 105.116 40.397 103.992C43.3313 102.726 44.6843 100.338 44.6843 96.4243C44.6843 93.5777 43.8958 91.7919 42.0579 90.4759C40.867 89.6231 38.7219 89.3111 34.0158 89.3064C30.3173 89.3026 29.3659 89.2392 27.9541 88.9022C25.4064 88.294 23.1054 86.9006 21.4036 84.9358C20.5839 83.9891 19.4785 81.9287 18.9535 80.3681C17.9442 77.3688 17.9648 78.1924 17.964 40.6563C17.9632 1.69711 18.0759 4.89404 16.6331 2.89184C15.7553 1.67368 14.898 1.0493 13.3556 0.504565C12.2652 0.119496 11.6185 0.0472078 8.88998 0.00590066C7.13516 -0.0207107 5.38533 0.0452216 5.00146 0.15266ZM222.929 2.99312C220.99 3.40858 219.09 4.957 218.27 6.7898C217.624 8.23377 217.374 9.63483 217.376 11.814C217.38 17.0282 218.935 19.9459 222.133 20.7419C223.291 21.03 230.425 21.058 232.407 20.7822C234.652 20.4696 236.026 19.4812 237.165 17.3593C237.586 16.5736 237.615 16.2835 237.615 12.7476C237.615 9.03608 237.605 8.95048 237.029 7.52062C236.042 5.06841 234.372 3.5748 231.984 3.00643C230.537 2.66207 224.516 2.65313 222.929 2.99312ZM282.383 26.4732C281.938 26.5539 280.502 26.8037 277.254 27.3659C276.683 27.465 275.112 27.914 273.765 28.364C268.508 30.1192 263.792 33.1708 259.332 37.7028C258.005 39.0505 256.749 40.3864 256.54 40.6714C256.331 40.9564 255.757 41.716 255.265 42.3594C251.385 47.4289 248.876 53.6406 247.98 60.3977C247.465 64.2774 247.624 67.2291 248.602 71.928C249.056 74.1049 250.332 78.3995 250.668 78.8787C250.744 78.9879 250.968 79.5241 251.164 80.0703C251.637 81.3829 252.779 83.6393 253.493 84.6736C253.808 85.1302 254.066 85.5458 254.066 85.5971C254.066 85.9472 256.749 89.5169 258.867 91.9858C260.915 94.3717 265.961 99.2235 268.003 100.768C270.914 102.971 271.204 103.105 273.01 103.084C273.909 103.073 274.792 102.939 275.222 102.749C277.442 101.768 281.904 97.568 282.917 95.5048C283.642 94.0293 283.674 91.8348 282.99 90.4963C282.697 89.9226 280.726 87.7901 277.483 84.5386C274.706 81.7533 272.064 79.001 271.613 78.4221C270.558 77.0705 268.566 73.5028 267.933 71.834C266.913 69.1425 266.031 64.8299 266.031 62.5312C266.031 61.0441 266.592 57.6629 267.105 56.0515C268.546 51.5342 272.373 47.1002 276.746 44.8827C280.012 43.2265 283.138 42.4371 286.43 42.4371C290.448 42.4371 294.662 43.9595 298.748 46.8867C300.924 48.4455 303.465 50.7974 308.922 56.3032C316.447 63.8949 317.321 64.9786 317.805 67.3208C318.069 68.5954 317.905 70.2467 317.394 71.4661C317.074 72.2271 315.527 74.3796 314.721 75.1855C314.428 75.478 313.112 76.8723 311.796 78.2841C310.48 79.6959 308.187 82.1052 306.7 83.6382C305.213 85.1711 302.79 87.6733 301.316 89.1989C299.319 91.2653 284.561 106.163 281.957 108.742C280.894 109.795 275.07 116.131 274.632 116.71C274.343 117.093 273.958 117.517 273.776 117.653C272.781 118.394 271.798 121.185 271.939 122.867C272.267 126.801 274.552 129.532 278.574 130.796C279.536 131.099 281.191 131.06 282.183 130.711C282.649 130.547 283.254 130.413 283.526 130.413C284.777 130.413 287.986 128.03 290.293 125.389C290.789 124.821 292.331 123.235 293.718 121.864C295.106 120.494 296.601 118.957 297.039 118.449C297.953 117.39 299.756 115.529 309.107 105.987C312.8 102.218 316.339 98.5989 316.971 97.9435C317.603 97.2882 319.114 95.7243 320.327 94.4682C324.928 89.7069 326.21 88.3565 327.868 86.5245C328.806 85.4868 329.761 84.4145 329.989 84.1414C330.218 83.8683 330.823 83.1534 331.334 82.5527C331.845 81.9519 332.611 80.9242 333.036 80.2688C333.462 79.6135 333.887 78.9871 333.982 78.8771C334.443 78.3433 335.888 74.9881 336.248 73.616C338.058 66.7322 336.578 59.9318 332.057 54.3526C328.908 50.4671 321.737 43.1913 317.2 39.2793C312.517 35.2405 307.621 31.8197 304.118 30.1385C302.864 29.5365 300.347 28.5203 299.632 28.3273C299.303 28.2385 298.54 28.0227 297.937 27.8473C297.333 27.6719 296.391 27.4432 295.843 27.3389C295.294 27.2346 294.218 27.0087 293.45 26.8369C292.09 26.5326 283.594 26.2534 282.383 26.4732ZM84.9654 27.8555C83.1003 28.0072 80.0497 28.3716 79.2821 28.5348C78.8434 28.628 77.7666 28.852 76.8892 29.0327C68.3552 30.7902 59.4363 36.8987 54.8553 44.1235C54.0459 45.3999 52.0633 49.1846 51.6294 50.2814C50.4692 53.2143 49.4538 57.2771 48.9493 61.0054C48.4233 64.894 48.5788 71.1563 49.2847 74.5097C49.814 77.0242 51.0435 81.2449 51.6567 82.6519C51.752 82.8704 52.038 83.5406 52.2922 84.1414C54.7145 89.862 59.8019 95.8543 65.1758 99.3166C66.8171 100.374 70.5463 102.299 71.5986 102.633C71.9859 102.756 72.572 102.967 72.901 103.103C73.23 103.238 73.761 103.456 74.0813 103.587C78.773 105.501 91.6223 106.257 97.628 104.972C99.8353 104.5 102.543 103.813 103.012 103.606C103.231 103.51 104.129 103.186 105.006 102.887C110.376 101.057 115.311 97.704 119.15 93.2778C123.13 88.6889 125.416 84.2204 127.136 77.6707C128.13 73.8861 128.312 72.2408 128.31 67.0625C128.309 62.5153 128.273 62.028 127.76 59.6153C126.343 52.9434 125.222 49.8759 122.424 45.0039C122.276 44.7471 121.502 43.6197 120.704 42.4982C116.074 35.9936 108.044 30.8224 99.8215 29.0506C98.9441 28.8615 97.9121 28.6304 97.5283 28.5366C95.4749 28.036 87.8391 27.6219 84.9654 27.8555ZM194.143 28.9417C191.546 29.079 191.178 29.1797 189.911 30.1017C188.896 30.8403 188.047 32.257 187.338 34.3941C187.048 35.2679 186.748 36.0722 186.671 36.1814C186.595 36.2906 186.287 37.0949 185.988 37.9687C185.69 38.8426 185.23 40.0937 184.968 40.749C184.705 41.4044 184.159 42.8342 183.755 43.9265C183.349 45.0188 182.846 46.3593 182.635 46.9054C182.424 47.4515 182.112 48.3452 181.943 48.8913C181.774 49.4374 181.468 50.2417 181.265 50.6786C181.061 51.1155 180.588 52.322 180.214 53.3596C179.839 54.3973 179.247 56.0059 178.896 56.9343C178.546 57.8627 178.051 59.2032 177.796 59.9132C177.542 60.6231 176.959 62.187 176.501 63.3885C176.043 64.59 175.328 66.5114 174.912 67.6583C173.981 70.2211 173.25 72.1772 172.016 75.4033C171.494 76.7687 170.863 78.4666 170.614 79.1766C170.09 80.6684 169.201 82.9667 168.797 83.8735C168.644 84.2176 168.519 84.5976 168.519 84.7175C168.519 84.8377 168.341 84.9358 168.124 84.9358C167.855 84.9358 167.69 84.761 167.607 84.3896C167.383 83.3798 166.876 81.8592 166.699 81.6689C166.603 81.5652 166.525 81.3486 166.525 81.1877C166.525 80.895 164.571 75.6315 164.046 74.5097C163.893 74.182 163.526 73.2437 163.232 72.4245C162.938 71.6053 162.58 70.6669 162.437 70.3392C162.294 70.0116 161.596 68.2242 160.884 66.3674C160.173 64.5106 159.347 62.3658 159.048 61.6012C158.749 60.8366 158.165 59.3174 157.751 58.2251C157.337 57.1329 156.71 55.4796 156.358 54.5512C156.006 53.6228 155.592 52.5815 155.438 52.2374C155.284 51.8932 155.158 51.5512 155.158 51.4778C155.158 51.358 154.487 49.5715 153.047 45.8628C152.783 45.1802 152.352 44.0631 152.091 43.3804C151.83 42.6978 151.299 41.3349 150.91 40.3518C150.522 39.3688 149.977 37.939 149.7 37.1744C149.242 35.9089 148.372 33.6464 147.811 32.2586C147.481 31.4424 145.891 29.9522 144.828 29.4631C143.939 29.054 143.614 29.0321 138.408 29.0321H132.924L131.76 29.6191C130.146 30.4336 129.035 31.8889 129.035 33.1882C129.035 33.5918 129.985 36.1421 130.816 37.9687C131.014 38.4056 131.245 38.9865 131.328 39.2596C131.493 39.7978 134.026 46.0074 134.609 47.3026C134.806 47.7395 135.166 48.6331 135.408 49.2885C135.651 49.9438 136.015 50.8375 136.217 51.2744C136.418 51.7113 136.76 52.5156 136.975 53.0617C137.19 53.6079 137.769 55.0377 138.262 56.2392C138.755 57.4407 139.67 59.6749 140.296 61.204C140.921 62.7332 141.65 64.4562 141.914 65.0329C142.179 65.6094 142.396 66.1337 142.396 66.1974C142.396 66.3062 145.109 73.0049 145.683 74.3111C145.826 74.6388 146.232 75.6218 146.583 76.4956C146.935 77.3694 147.341 78.3524 147.486 78.6801C147.63 79.0078 148.48 81.0632 149.374 83.2477C150.268 85.4322 151.134 87.5147 151.298 87.8755C151.463 88.2363 151.77 89.0309 151.981 89.6412C152.192 90.2517 152.443 90.85 152.538 90.9712C152.634 91.0923 152.91 91.7276 153.153 92.383C153.395 93.0383 153.711 93.8426 153.855 94.1703C154 94.498 154.626 96.0214 155.248 97.5557C156.849 101.508 158.154 102.885 160.912 103.532C162.419 103.885 173.985 103.896 175.299 103.545C176.289 103.281 177.796 102.546 178.342 102.062C178.891 101.575 179.968 99.8419 180.469 98.6386C180.979 97.4141 181.335 96.5822 181.787 95.5646C181.955 95.1847 182.221 94.5125 182.378 94.071C182.534 93.6295 182.796 92.9797 182.96 92.627C183.125 92.2743 183.474 91.4049 183.738 90.6949C184.001 89.985 184.683 88.2423 185.254 86.8224C185.825 85.4024 186.659 83.3023 187.106 82.1555C187.908 80.0973 188.192 79.399 188.739 78.134C188.893 77.7789 189.156 77.0864 189.323 76.5949C189.605 75.7687 192.03 69.6545 192.435 68.7505C192.533 68.5321 193.11 67.0575 193.719 65.4737C194.327 63.89 195.321 61.3877 195.926 59.9132C196.532 58.4386 197.029 57.1643 197.031 57.081C197.033 56.998 197.224 56.5065 197.456 55.9888C198.021 54.7307 198.287 54.0815 198.821 52.6646C199.067 52.0092 199.391 51.2049 199.539 50.8772C199.881 50.1228 202.179 44.388 202.564 43.3307C202.836 42.5814 203.071 42.0049 203.577 40.8483C203.696 40.5753 204.031 39.7263 204.32 38.9617C204.61 38.1971 205.013 37.2056 205.215 36.7581C205.605 35.8956 206.207 33.753 206.207 33.2309C206.207 33.0598 206.02 32.4195 205.79 31.8082C205.278 30.4465 204.046 29.4462 202.518 29.1534C201.157 28.8925 197.042 28.7884 194.143 28.9417ZM222.659 29.1499C221.612 29.4025 220.11 30.5138 219.427 31.5409C218.916 32.3105 218.872 32.551 218.732 35.364C218.649 37.0151 218.623 52.2084 218.674 69.127L218.767 99.8879L219.259 100.726C219.877 101.776 220.975 102.745 222.15 103.278C222.95 103.641 223.536 103.699 227.086 103.766C230.808 103.837 231.218 103.809 232.47 103.407C234.255 102.834 235.346 101.924 236.108 100.371L236.715 99.1351L236.725 65.9599C236.731 47.7137 236.671 32.6107 236.593 32.3978C236.229 31.4073 235.249 30.3102 234.176 29.6926L233.028 29.0321L228.242 28.9948C225.61 28.9743 223.098 29.0442 222.659 29.1499ZM91.1834 42.7477C95.6343 43.3244 98.9228 44.8132 102.167 47.7208C105.135 50.3805 107.881 54.8234 108.906 58.6223C109.841 62.0881 109.909 62.5209 110.023 65.6723C110.191 70.319 109.803 72.8981 108.336 76.8928C105.034 85.8864 96.2407 91.4095 86.6621 90.5057C84.5029 90.3019 81.6091 89.7689 81.2763 89.5135C81.1666 89.4295 80.6282 89.1957 80.0798 88.9942C78.0193 88.2369 75.5865 86.5757 73.7305 84.6589C72.0501 82.9232 69.7104 79.4953 69.311 78.1836C69.2278 77.9106 68.9965 77.3297 68.7967 76.8928C68.4057 76.0368 67.6349 73.3175 67.1924 71.2329C66.8315 69.5318 66.8305 63.8713 67.1906 61.8991C67.4583 60.4339 68.2677 57.4147 68.6015 56.6364C68.6952 56.4179 68.9718 55.7477 69.2161 55.147C69.4603 54.5462 69.8285 53.8176 70.0342 53.5276C70.24 53.2377 70.4083 52.9384 70.4083 52.8627C70.4083 52.5069 72.696 49.5532 73.8274 48.4482C75.5747 46.7417 76.8493 45.8245 78.6999 44.9421C81.1576 43.7698 81.7052 43.5734 83.6692 43.158C87.4953 42.3487 87.9234 42.3253 91.1834 42.7477Z" fill="url(#paint0_linear_284_240)"/>
<defs>
<linearGradient id="paint0_linear_284_240" x1="403.585" y1="79.1458" x2="-50.2993" y2="45.3147" gradientUnits="userSpaceOnUse">
<stop stop-color="#7827E6"/>
<stop offset="0.350962" stop-color="#8D3AEC"/>
<stop offset="0.649038" stop-color="#AA4FF5"/>
<stop offset="0.942308" stop-color="#EA80FC"/>
</linearGradient>
</defs>
</svg>
