<svg width="41" height="41" viewBox="0 0 41 41" fill="none" xmlns="http://www.w3.org/2000/svg">
<rect width="41" height="41" rx="9" fill="url(#paint0_linear_419_163)"/>
<path fill-rule="evenodd" clip-rule="evenodd" d="M17.8233 9.01803C17.723 9.03649 17.3993 9.0937 16.6668 9.22245C16.5378 9.24515 16.1837 9.34798 15.8798 9.45103C14.6943 9.85298 13.6308 10.5518 12.6249 11.5897C12.3258 11.8983 12.0425 12.2042 11.9953 12.2695C11.9482 12.3348 11.8187 12.5087 11.7077 12.6561C10.8327 13.817 10.2669 15.2396 10.0648 16.787C9.94867 17.6755 9.98464 18.3514 10.2052 19.4275C10.3074 19.926 10.5952 20.9095 10.671 21.0193C10.6882 21.0443 10.7387 21.1671 10.783 21.2921C10.8897 21.5928 11.1471 22.1095 11.3081 22.3464C11.3792 22.4509 11.4374 22.5461 11.4374 22.5578C11.4374 22.638 12.0423 23.4555 12.5201 24.0209C12.9818 24.5673 14.12 25.6784 14.5804 26.0322C15.2369 26.5366 15.3024 26.5674 15.7096 26.5624C15.9123 26.5599 16.1114 26.5293 16.2085 26.4858C16.7091 26.2612 17.7153 25.2993 17.9439 24.8268C18.1073 24.4889 18.1145 23.9863 17.9603 23.6798C17.8942 23.5484 17.4497 23.0601 16.7184 22.3154C16.0921 21.6776 15.4963 21.0473 15.3945 20.9147C15.1567 20.6052 14.7074 19.7882 14.5647 19.406C14.3346 18.7896 14.1357 17.802 14.1357 17.2756C14.1357 16.935 14.2621 16.1607 14.378 15.7917C14.7028 14.7572 15.566 13.7418 16.5521 13.2339C17.2887 12.8546 17.9936 12.6739 18.736 12.6739C19.6421 12.6739 20.5926 13.0225 21.5141 13.6929C22.0047 14.0498 22.5778 14.5884 23.8085 15.8493C25.5055 17.5879 25.7025 17.8361 25.8118 18.3724C25.8713 18.6643 25.8343 19.0425 25.7189 19.3217C25.6469 19.496 25.2981 19.9889 25.1162 20.1735C25.0502 20.2405 24.7533 20.5598 24.4565 20.8831C24.1597 21.2064 23.6426 21.7582 23.3073 22.1092C22.9721 22.4603 22.4257 23.0333 22.0931 23.3827C21.6427 23.8559 18.3146 27.2676 17.7274 27.8582C17.4876 28.0994 16.1741 29.5503 16.0754 29.683C16.0103 29.7706 15.9234 29.8677 15.8823 29.8988C15.6581 30.0687 15.4364 30.7076 15.468 31.0929C15.5421 31.9939 16.0574 32.6193 16.9643 32.9087C17.1814 32.978 17.5546 32.9691 17.7783 32.8893C17.8835 32.8518 18.0198 32.8211 18.0812 32.8211C18.3632 32.8211 19.087 32.2754 19.6073 31.6706C19.7192 31.5405 20.0668 31.1772 20.3798 30.8633C20.6927 30.5495 21.0297 30.1975 21.1287 30.0811C21.3347 29.8388 21.7412 29.4125 23.8502 27.2272C24.6831 26.3642 25.4811 25.5353 25.6237 25.3853C25.7663 25.2352 26.1069 24.877 26.3806 24.5894C27.4182 23.499 27.7073 23.1898 28.0811 22.7702C28.2927 22.5326 28.5081 22.287 28.5595 22.2245C28.611 22.1619 28.7475 21.9982 28.8627 21.8606C28.978 21.7231 29.1508 21.4877 29.2467 21.3376C29.3426 21.1875 29.4386 21.0441 29.46 21.0189C29.5639 20.8967 29.8898 20.1283 29.9711 19.8141C30.3791 18.2376 30.0453 16.6803 29.0258 15.4026C28.3157 14.5128 26.6985 12.8466 25.6754 11.9507C24.6191 11.0258 23.515 10.2424 22.7251 9.85739C22.4423 9.71954 21.8745 9.48682 21.7133 9.44262C21.6391 9.42229 21.4671 9.37285 21.331 9.3327C21.195 9.29254 20.9825 9.24015 20.8588 9.21627C20.7352 9.19239 20.4923 9.14064 20.3192 9.1013C20.0125 9.03163 18.0965 8.96768 17.8233 9.01803Z" fill="#0F172A"/>
<defs>
<linearGradient id="paint0_linear_419_163" x1="47.0219" y1="10.7541" x2="-15.255" y2="11.0472" gradientUnits="userSpaceOnUse">
<stop stop-color="#F9E0FF"/>
<stop offset="0.490385" stop-color="#E2DBFF"/>
<stop offset="1" stop-color="#FDDFDF"/>
</linearGradient>
</defs>
</svg>
