<svg width="21" height="24" viewBox="0 0 21 24" fill="none" xmlns="http://www.w3.org/2000/svg">
<path fill-rule="evenodd" clip-rule="evenodd" d="M7.82328 0.0180259C7.72304 0.0364904 7.3993 0.0937028 6.66681 0.222454C6.53783 0.245148 6.18368 0.347977 5.87981 0.451032C4.69429 0.852976 3.63076 1.55181 2.62494 2.58969C2.32579 2.89831 2.04248 3.20425 1.99535 3.26951C1.94817 3.33477 1.81874 3.50873 1.70766 3.65608C0.832707 4.81702 0.266926 6.23957 0.0647812 7.78699C-0.0513341 8.67547 -0.01536 9.35143 0.205223 10.4275C0.307442 10.926 0.595176 11.9095 0.670952 12.0193C0.688221 12.0443 0.738671 12.1671 0.783012 12.2921C0.889684 12.5928 1.14706 13.1095 1.3081 13.3464C1.3792 13.4509 1.43739 13.5461 1.43739 13.5578C1.43739 13.638 2.04234 14.4555 2.52011 15.0209C2.98183 15.5673 4.12001 16.6784 4.58038 17.0322C5.23686 17.5366 5.30238 17.5674 5.70964 17.5624C5.91233 17.5599 6.11141 17.5293 6.20851 17.4858C6.70908 17.2612 7.71526 16.2993 7.94385 15.8268C8.10732 15.4889 8.11452 14.9863 7.96027 14.6798C7.89416 14.5484 7.44971 14.0601 6.71843 13.3154C6.09208 12.6776 5.4963 12.0473 5.39448 11.9147C5.15672 11.6052 4.70738 10.7882 4.56468 10.406C4.33456 9.78962 4.13565 8.80199 4.13565 8.27557C4.13565 7.93503 4.26211 7.1607 4.378 6.79168C4.70283 5.75717 5.56596 4.74176 6.55213 4.23394C7.28871 3.85464 7.99359 3.67386 8.73602 3.67386C9.64209 3.67386 10.5926 4.02251 11.5141 4.69287C12.0047 5.04983 12.5778 5.58844 13.8085 6.8493C15.5055 8.58788 15.7025 8.83606 15.8118 9.37244C15.8713 9.66432 15.8343 10.0425 15.7189 10.3217C15.6469 10.496 15.2981 10.9889 15.1162 11.1735C15.0502 11.2405 14.7533 11.5598 14.4565 11.8831C14.1597 12.2064 13.6426 12.7582 13.3073 13.1092C12.9721 13.4603 12.4257 14.0333 12.0931 14.3827C11.6427 14.8559 8.31459 18.2676 7.72736 18.8582C7.48757 19.0994 6.17406 20.5503 6.07539 20.683C6.01028 20.7706 5.92339 20.8677 5.88229 20.8988C5.65806 21.0687 5.43635 21.7076 5.46801 22.0929C5.54208 22.9939 6.05745 23.6193 6.96429 23.9087C7.18141 23.978 7.55463 23.9691 7.77831 23.8893C7.88346 23.8518 8.01976 23.8211 8.08123 23.8211C8.3632 23.8211 9.08701 23.2754 9.60728 22.6706C9.71922 22.5405 10.0668 22.1772 10.3798 21.8633C10.6927 21.5495 11.0297 21.1975 11.1287 21.0811C11.3347 20.8388 11.7412 20.4125 13.8502 18.2272C14.6831 17.3642 15.4811 16.5353 15.6237 16.3853C15.7663 16.2352 16.1069 15.877 16.3806 15.5894C17.4182 14.499 17.7073 14.1898 18.0811 13.7702C18.2927 13.5326 18.5081 13.287 18.5595 13.2245C18.611 13.1619 18.7475 12.9982 18.8627 12.8606C18.978 12.7231 19.1508 12.4877 19.2467 12.3376C19.3426 12.1875 19.4386 12.0441 19.46 12.0189C19.5639 11.8967 19.8898 11.1283 19.9711 10.8141C20.3791 9.23764 20.0453 7.6803 19.0258 6.40261C18.3157 5.51281 16.6985 3.84659 15.6754 2.9507C14.6191 2.02579 13.515 1.24241 12.7251 0.857389C12.4423 0.719542 11.8745 0.486824 11.7133 0.442619C11.6391 0.42229 11.4671 0.372854 11.331 0.332696C11.195 0.292538 10.9825 0.240146 10.8588 0.21627C10.7352 0.192393 10.4923 0.140639 10.3192 0.101299C10.0125 0.0316253 8.09653 -0.0323195 7.82328 0.0180259Z" fill="black"/>
</svg>
