<svg width="76" height="30" viewBox="0 0 76 30" fill="none" xmlns="http://www.w3.org/2000/svg">
<path fill-rule="evenodd" clip-rule="evenodd" d="M1.12793 0.0349603C0.558906 0.196593 0.245368 0.476517 0.0622008 0.986428C-0.0143849 1.19959 -0.0233791 17.3902 0.0527569 17.9932C0.14072 18.6902 0.322853 19.6036 0.434291 19.9067C0.494238 20.0698 0.543301 20.2285 0.543301 20.2593C0.543301 20.3372 0.92569 21.1408 1.07365 21.3739C1.45999 21.9826 2.08473 22.6756 2.48196 22.9361C2.59056 23.0074 2.68955 23.0767 2.70191 23.0902C2.73069 23.1216 3.28703 23.4531 3.311 23.4531C3.32094 23.4531 3.44596 23.5067 3.58888 23.5723C4.08954 23.8019 4.14508 23.8226 4.44544 23.8914C5.29283 24.0856 5.58906 24.1261 6.4378 24.1635C7.47397 24.2091 8.52239 24.0724 9.11029 23.8149C9.77204 23.5251 10.0772 22.9782 10.0772 22.0819C10.0772 21.43 9.89935 21.0211 9.48486 20.7197C9.21629 20.5244 8.73253 20.4529 7.67122 20.4518C6.83714 20.451 6.62258 20.4365 6.30419 20.3593C5.72964 20.22 5.21072 19.9009 4.82693 19.4509C4.64206 19.2341 4.39278 18.7623 4.27437 18.4049C4.04677 17.718 4.05141 17.9066 4.05123 9.3106C4.05105 0.38865 4.07645 1.12077 3.75109 0.662253C3.55313 0.383285 3.3598 0.240298 3.01194 0.115549C2.76604 0.0273654 2.6202 0.0108109 2.00486 0.0013513C1.60912 -0.0047429 1.21449 0.0103561 1.12793 0.0349603ZM50.2748 0.685448C49.8375 0.78059 49.4089 1.13519 49.224 1.55492C49.0783 1.8856 49.0221 2.20645 49.0225 2.70549C49.0234 3.89959 49.374 4.56777 50.0953 4.75005C50.3565 4.81604 51.9653 4.82245 52.4122 4.75928C52.9186 4.6877 53.2285 4.46135 53.4852 3.9754C53.5803 3.79549 53.5867 3.72904 53.5867 2.91929C53.5867 2.06933 53.5845 2.04973 53.4547 1.72228C53.232 1.1607 52.8555 0.818656 52.3169 0.688495C51.9906 0.609634 50.6326 0.607588 50.2748 0.685448ZM63.6827 6.06258C63.5825 6.08104 63.2587 6.13825 62.5262 6.267C62.3972 6.2897 62.0431 6.39253 61.7392 6.49558C60.5537 6.89753 59.4902 7.59636 58.4844 8.63424C58.1852 8.94286 57.9019 9.2488 57.8548 9.31406C57.8076 9.37932 57.6782 9.55328 57.5671 9.70063C56.6921 10.8616 56.1263 12.2841 55.9242 13.8315C55.8081 14.72 55.8441 15.396 56.0646 16.4721C56.1669 16.9706 56.4546 17.9541 56.5304 18.0638C56.5476 18.0888 56.5981 18.2116 56.6424 18.3367C56.7491 18.6373 57.0065 19.1541 57.1675 19.3909C57.2386 19.4955 57.2968 19.5906 57.2968 19.6024C57.2968 19.6826 57.9018 20.5 58.3795 21.0654C58.8412 21.6118 59.9794 22.7229 60.4398 23.0767C61.0963 23.5811 61.1618 23.6119 61.5691 23.607C61.7717 23.6045 61.9708 23.5739 62.0679 23.5303C62.5685 23.3057 63.5747 22.3438 63.8033 21.8713C63.9667 21.5334 63.9739 21.0309 63.8197 20.7244C63.7536 20.593 63.3091 20.1046 62.5778 19.36C61.9515 18.7221 61.3557 18.0918 61.2539 17.9593C61.0161 17.6497 60.5668 16.8327 60.4241 16.4505C60.194 15.8342 59.9951 14.8465 59.9951 14.3201C59.9951 13.9796 60.1215 13.2052 60.2374 12.8362C60.5622 11.8017 61.4254 10.7863 62.4115 10.2785C63.1481 9.89919 63.853 9.71841 64.5954 9.71841C65.5015 9.71841 66.452 10.0671 67.3735 10.7374C67.8641 11.0944 68.4372 11.633 69.6679 12.8939C71.3649 14.6324 71.5619 14.8806 71.6712 15.417C71.7307 15.7089 71.6937 16.087 71.5784 16.3663C71.5063 16.5405 71.1575 17.0335 70.9756 17.2181C70.9096 17.285 70.6127 17.6043 70.3159 17.9277C70.0191 18.251 69.502 18.8027 69.1667 19.1538C68.8315 19.5048 68.2851 20.0779 67.9525 20.4272C67.5021 20.9004 64.174 24.3122 63.5868 24.9028C63.347 25.144 62.0335 26.5949 61.9348 26.7276C61.8697 26.8151 61.7828 26.9122 61.7417 26.9434C61.5175 27.1132 61.2958 27.7522 61.3274 28.1374C61.4015 29.0384 61.9169 29.6639 62.8237 29.9533C63.0408 30.0226 63.414 30.0137 63.6377 29.9339C63.7429 29.8963 63.8792 29.8656 63.9406 29.8656C64.2226 29.8656 64.9464 29.3199 65.4667 28.7151C65.5786 28.585 65.9263 28.2217 66.2392 27.9079C66.5521 27.594 66.8891 27.242 66.9881 27.1256C67.1941 26.8833 67.6007 26.457 69.7096 24.2717C70.5425 23.4088 71.3405 22.5799 71.4831 22.4298C71.6257 22.2797 71.9663 21.9216 72.24 21.6339C73.2776 20.5436 73.5667 20.2343 73.9405 19.8148C74.1521 19.5771 74.3675 19.3316 74.419 19.269C74.4704 19.2065 74.6069 19.0428 74.7222 18.9052C74.8374 18.7676 75.0102 18.5323 75.1061 18.3822C75.202 18.2321 75.2981 18.0887 75.3195 18.0635C75.4233 17.9412 75.7492 17.1728 75.8305 16.8586C76.2385 15.2822 75.9048 13.7248 74.8852 12.4472C74.1751 11.5574 72.5579 9.89114 71.5348 8.99525C70.4785 8.07034 69.3745 7.28696 68.5845 6.90194C68.3017 6.76409 67.734 6.53137 67.5727 6.48717C67.4985 6.46684 67.3265 6.4174 67.1904 6.37725C67.0544 6.33709 66.8419 6.2847 66.7182 6.26082C66.5946 6.23694 66.3517 6.18519 66.1786 6.14585C65.8719 6.07618 63.9559 6.01223 63.6827 6.06258ZM19.1613 6.37911C18.7407 6.41386 18.0527 6.49731 17.8797 6.53469C17.7807 6.55602 17.5379 6.60732 17.34 6.64871C15.4154 7.0512 13.404 8.45009 12.3709 10.1046C12.1884 10.3969 11.7413 11.2637 11.6434 11.5148C11.3818 12.1865 11.1528 13.1169 11.039 13.9707C10.9204 14.8612 10.9555 16.2953 11.1147 17.0633C11.234 17.6391 11.5113 18.6057 11.6496 18.9279C11.6711 18.978 11.7356 19.1314 11.7929 19.269C12.3392 20.5791 13.4865 21.9514 14.6984 22.7443C15.0686 22.9864 15.9096 23.4274 16.1469 23.5037C16.2342 23.5318 16.3664 23.5802 16.4406 23.6113C16.5148 23.6423 16.6345 23.6922 16.7068 23.7221C17.7648 24.1606 20.6626 24.3337 22.017 24.0394C22.5148 23.9313 23.1254 23.774 23.2312 23.7267C23.2807 23.7045 23.483 23.6304 23.6809 23.5619C24.8919 23.1428 26.0048 22.375 26.8705 21.3613C27.7681 20.3104 28.2838 19.2871 28.6716 17.7872C28.8957 16.9205 28.9368 16.5437 28.9364 15.3578C28.9361 14.3165 28.928 14.2049 28.8124 13.6524C28.4927 12.1244 28.24 11.422 27.6089 10.3062C27.5756 10.2474 27.4012 9.98924 27.2211 9.73242C26.1769 8.2428 24.366 7.05857 22.5117 6.6528C22.3138 6.60951 22.0811 6.55657 21.9945 6.5351C21.5314 6.42045 19.8094 6.32563 19.1613 6.37911ZM43.783 6.62788C43.1973 6.65931 43.1143 6.68236 42.8286 6.89352C42.5998 7.06266 42.4083 7.38711 42.2484 7.87651C42.183 8.07662 42.1153 8.26081 42.098 8.28582C42.0807 8.31084 42.0113 8.49503 41.9439 8.69513C41.8766 8.89524 41.773 9.18176 41.7138 9.33184C41.6546 9.48192 41.5315 9.80937 41.4402 10.0595C41.3488 10.3096 41.2352 10.6166 41.1876 10.7417C41.14 10.8668 41.0698 11.0714 41.0316 11.1965C40.9934 11.3216 40.9246 11.5057 40.8787 11.6058C40.8327 11.7058 40.7261 11.9821 40.6417 12.2198C40.5573 12.4574 40.4236 12.8258 40.3445 13.0384C40.2656 13.251 40.154 13.558 40.0965 13.7206C40.0391 13.8832 39.9077 14.2413 39.8044 14.5165C39.7012 14.7916 39.5399 15.2316 39.4459 15.4943C39.236 16.0812 39.0711 16.5291 38.7929 17.2679C38.6752 17.5806 38.5329 17.9695 38.4767 18.132C38.3586 18.4737 38.1581 19 38.0671 19.2077C38.0325 19.2865 38.0042 19.3735 38.0042 19.401C38.0042 19.4285 37.9641 19.4509 37.9151 19.4509C37.8545 19.4509 37.8173 19.4109 37.7987 19.3259C37.7481 19.0946 37.6337 18.7464 37.5939 18.7028C37.5723 18.6791 37.5545 18.6294 37.5545 18.5926C37.5545 18.5256 37.1139 17.3202 36.9956 17.0633C36.961 16.9882 36.8784 16.7734 36.812 16.5858C36.7456 16.3982 36.665 16.1833 36.6327 16.1082C36.6005 16.0332 36.4429 15.6239 36.2825 15.1986C36.1222 14.7734 35.9358 14.2822 35.8684 14.1071C35.8009 13.9321 35.6693 13.5841 35.5759 13.334C35.4825 13.0839 35.3411 12.7053 35.2617 12.4926C35.1823 12.28 35.089 12.0416 35.0542 11.9628C35.0195 11.8839 34.9911 11.8056 34.9911 11.7888C34.9911 11.7614 34.8397 11.3522 34.5151 10.5029C34.4554 10.3466 34.3584 10.0908 34.2995 9.93444C34.2407 9.77813 34.1208 9.466 34.0332 9.24088C33.9455 9.01576 33.8227 8.68831 33.7602 8.51322C33.6569 8.22342 33.4608 7.70528 33.3342 7.38747C33.2598 7.20055 32.9012 6.85928 32.6615 6.74726C32.461 6.65358 32.3877 6.64857 31.2136 6.64857H29.9769L29.7145 6.78301C29.3505 6.96952 29.0999 7.30279 29.0999 7.60036C29.0999 7.69277 29.3141 8.27682 29.5014 8.69513C29.5462 8.79519 29.5983 8.92821 29.6171 8.99075C29.6542 9.114 30.2254 10.536 30.3569 10.8327C30.4013 10.9327 30.4824 11.1374 30.5372 11.2874C30.592 11.4375 30.674 11.6422 30.7195 11.7422C30.765 11.8423 30.8419 12.0265 30.8904 12.1515C30.9389 12.2766 31.0696 12.6041 31.1807 12.8792C31.2919 13.1544 31.4983 13.666 31.6394 14.0162C31.7805 14.3664 31.9448 14.761 32.0044 14.893C32.0642 15.025 32.113 15.1451 32.113 15.1597C32.113 15.1846 32.725 16.7187 32.8543 17.0178C32.8867 17.0928 32.9781 17.318 33.0574 17.5181C33.1367 17.7182 33.2282 17.9433 33.2609 18.0183C33.2935 18.0934 33.4851 18.5641 33.6867 19.0644C33.8883 19.5646 34.0836 20.0415 34.1207 20.1242C34.1578 20.2068 34.227 20.3888 34.2746 20.5285C34.3222 20.6683 34.3787 20.8054 34.4003 20.8331C34.4219 20.8608 34.4842 21.0063 34.5389 21.1564C34.5935 21.3065 34.6648 21.4907 34.6973 21.5657C34.7299 21.6408 34.8712 21.9896 35.0113 22.341C35.3724 23.2462 35.6668 23.5616 36.2887 23.7096C36.6285 23.7905 39.2369 23.7929 39.5332 23.7126C39.7565 23.6521 40.0964 23.4838 40.2197 23.3729C40.3434 23.2614 40.5862 22.8646 40.6992 22.589C40.8142 22.3086 40.8946 22.1181 40.9964 21.885C41.0344 21.798 41.0944 21.6441 41.1297 21.543C41.165 21.4419 41.2241 21.2931 41.2611 21.2123C41.2981 21.1315 41.377 20.9324 41.4364 20.7698C41.4957 20.6072 41.6497 20.2082 41.7785 19.883C41.9072 19.5578 42.0951 19.0769 42.1959 18.8142C42.3769 18.3429 42.4409 18.183 42.5643 17.8933C42.5989 17.812 42.6582 17.6534 42.6961 17.5408C42.7596 17.3516 43.3066 15.9514 43.3978 15.7444C43.4198 15.6944 43.5501 15.3567 43.6873 14.994C43.8245 14.6313 44.0485 14.0583 44.1851 13.7206C44.3217 13.3829 44.4338 13.0911 44.4343 13.072C44.4347 13.053 44.4779 12.9404 44.5302 12.8219C44.6575 12.5338 44.7175 12.3851 44.8379 12.0606C44.8936 11.9105 44.9665 11.7263 44.9999 11.6513C45.077 11.4785 45.5953 10.1652 45.682 9.92307C45.7435 9.75148 45.7965 9.61945 45.9104 9.35458C45.9373 9.29205 46.0128 9.09762 46.0782 8.92253C46.1436 8.74743 46.2343 8.52036 46.2799 8.41789C46.3678 8.22038 46.5037 7.7297 46.5037 7.61014C46.5037 7.57094 46.4614 7.42431 46.4096 7.28433C46.2942 6.97248 46.0163 6.7434 45.6718 6.67636C45.3649 6.6166 44.4367 6.59277 43.783 6.62788ZM50.2139 6.67554C49.9777 6.73339 49.6389 6.98789 49.485 7.22311C49.3697 7.39934 49.3599 7.45442 49.3282 8.09863C49.3096 8.47674 49.3038 11.9561 49.3152 15.8306L49.3361 22.8751L49.4472 23.0669C49.5866 23.3075 49.834 23.5293 50.0991 23.6515C50.2795 23.7346 50.4116 23.7478 51.2124 23.7632C52.0517 23.7794 52.1442 23.7731 52.4266 23.681C52.8289 23.5498 53.075 23.3413 53.2469 22.9858L53.3838 22.7027L53.3861 15.1053C53.3873 10.9268 53.3739 7.46811 53.3563 7.41935C53.2742 7.1925 53.0531 6.94128 52.8111 6.79984L52.5524 6.64857L51.4731 6.64003C50.8794 6.63534 50.3128 6.65135 50.2139 6.67554ZM20.5636 9.78954C21.5674 9.92161 22.309 10.2626 23.0406 10.9284C23.71 11.5375 24.3293 12.555 24.5604 13.425C24.7712 14.2187 24.7866 14.3178 24.8123 15.0395C24.8501 16.1036 24.7627 16.6942 24.4319 17.609C23.6872 19.6686 21.7041 20.9335 19.544 20.7265C19.057 20.6798 18.4044 20.5578 18.3294 20.4993C18.3046 20.48 18.1832 20.4265 18.0595 20.3803C17.5948 20.2069 17.0462 19.8265 16.6277 19.3875C16.2487 18.9901 15.721 18.205 15.631 17.9046C15.6122 17.8421 15.56 17.7091 15.515 17.609C15.4268 17.413 15.253 16.7903 15.1532 16.3129C15.0718 15.9233 15.0716 14.627 15.1528 14.1754C15.2131 13.8398 15.3957 13.1484 15.471 12.9702C15.4921 12.9201 15.5545 12.7666 15.6096 12.6291C15.6646 12.4915 15.7477 12.3246 15.7941 12.2582C15.8405 12.1918 15.8784 12.1233 15.8784 12.106C15.8784 12.0245 16.3943 11.3481 16.6495 11.095C17.0435 10.7042 17.331 10.4942 17.7483 10.2921C18.3026 10.0236 18.4261 9.97864 18.869 9.8835C19.7319 9.69817 19.8284 9.69281 20.5636 9.78954Z" fill="black"/>
</svg>
