<svg width="42" height="42" viewBox="0 0 42 42" fill="none" xmlns="http://www.w3.org/2000/svg">
<path d="M33.75 10.125C33.75 10.4234 33.8685 10.7095 34.0795 10.9205C34.2905 11.1315 34.5766 11.25 34.875 11.25C35.1734 11.25 35.4595 11.1315 35.6705 10.9205C35.8815 10.7095 36 10.4234 36 10.125V8.25H37.875C38.1734 8.25 38.4595 8.13147 38.6705 7.9205C38.8815 7.70952 39 7.42337 39 7.125C39 6.82663 38.8815 6.54048 38.6705 6.3295C38.4595 6.11853 38.1734 6 37.875 6H36V4.125C36 3.82663 35.8815 3.54048 35.6705 3.3295C35.4595 3.11853 35.1734 3 34.875 3C34.5766 3 34.2905 3.11853 34.0795 3.3295C33.8685 3.54048 33.75 3.82663 33.75 4.125V6H31.875C31.5766 6 31.2905 6.11853 31.0795 6.3295C30.8685 6.54048 30.75 6.82663 30.75 7.125C30.75 7.42337 30.8685 7.70952 31.0795 7.9205C31.2905 8.13147 31.5766 8.25 31.875 8.25H33.75V10.125ZM15.111 5.889C15.1995 5.466 15.531 5.25 15.753 5.25C15.975 5.25 16.305 5.4645 16.392 5.8875C16.7145 7.437 17.5305 9.8205 19.6035 11.8965C21.678 13.971 24.0615 14.787 25.611 15.1095C26.034 15.1965 26.25 15.5295 26.25 15.75C26.25 15.9705 26.0355 16.3035 25.6125 16.392C24.0615 16.713 21.6795 17.529 19.605 19.605C17.5305 21.681 16.7145 24.06 16.3935 25.611C16.305 26.034 15.9735 26.25 15.7515 26.25C15.5295 26.25 15.1995 26.0355 15.111 25.6125C14.7885 24.063 13.9725 21.678 11.898 19.6035C9.8235 17.529 7.44 16.71 5.8905 16.3905C5.469 16.302 5.253 15.9705 5.253 15.7515C5.253 15.5295 5.4675 15.1965 5.892 15.1095C7.4415 14.787 9.822 13.971 11.898 11.8965C13.974 9.822 14.79 7.4385 15.111 5.889ZM15.753 3C14.2605 3 13.1685 4.1775 12.909 5.43C12.6435 6.708 11.976 8.6355 10.3065 10.305C8.637 11.9745 6.711 12.6405 5.4345 12.906C4.179 13.167 3 14.262 3.003 15.756C3.006 17.244 4.182 18.3345 5.433 18.594C6.7095 18.858 8.6385 19.524 10.308 21.1935C11.9745 22.863 12.642 24.7935 12.9075 26.07C13.1685 27.324 14.2605 28.5 15.7515 28.5C17.244 28.5 18.336 27.3225 18.597 26.0685C18.861 24.792 19.527 22.8645 21.195 21.1965C22.863 19.5285 24.792 18.8595 26.07 18.594C27.3225 18.333 28.5 17.241 28.5 15.75C28.5 14.259 27.3225 13.167 26.07 12.906C24.792 12.6405 22.863 11.9745 21.195 10.305C19.5285 8.637 18.861 6.708 18.5955 5.43C18.336 4.1775 17.2425 3 15.753 3ZM17.25 29.73V33.375C17.25 34.2701 17.6056 35.1285 18.2385 35.7615C18.8715 36.3944 19.7299 36.75 20.625 36.75H33.375C34.2701 36.75 35.1285 36.3944 35.7615 35.7615C36.3944 35.1285 36.75 34.2701 36.75 33.375V20.625C36.75 19.7299 36.3944 18.8715 35.7615 18.2385C35.1285 17.6056 34.2701 17.25 33.375 17.25H29.73C29.9955 16.5312 30.0664 15.755 29.9355 15H33.375C34.8668 15 36.2976 15.5926 37.3525 16.6475C38.4074 17.7024 39 19.1332 39 20.625V33.375C39 34.8668 38.4074 36.2976 37.3525 37.3525C36.2976 38.4074 34.8668 39 33.375 39H20.625C19.1332 39 17.7024 38.4074 16.6475 37.3525C15.5926 36.2976 15 34.8668 15 33.375V29.9355C15.755 30.0664 16.5312 29.9955 17.25 29.73ZM3 34.875C3 34.5766 3.11853 34.2905 3.3295 34.0795C3.54048 33.8685 3.82663 33.75 4.125 33.75H6V31.875C6 31.5766 6.11853 31.2905 6.3295 31.0795C6.54048 30.8685 6.82663 30.75 7.125 30.75C7.42337 30.75 7.70952 30.8685 7.9205 31.0795C8.13147 31.2905 8.25 31.5766 8.25 31.875V33.75H10.125C10.4234 33.75 10.7095 33.8685 10.9205 34.0795C11.1315 34.2905 11.25 34.5766 11.25 34.875C11.25 35.1734 11.1315 35.4595 10.9205 35.6705C10.7095 35.8815 10.4234 36 10.125 36H8.25V37.875C8.25 38.1734 8.13147 38.4595 7.9205 38.6705C7.70952 38.8815 7.42337 39 7.125 39C6.82663 39 6.54048 38.8815 6.3295 38.6705C6.11853 38.4595 6 38.1734 6 37.875V36H4.125C3.82663 36 3.54048 35.8815 3.3295 35.6705C3.11853 35.4595 3 35.1734 3 34.875ZM21 24.375C21 24.0766 21.1185 23.7905 21.3295 23.5795C21.5405 23.3685 21.8266 23.25 22.125 23.25H32.625C32.9234 23.25 33.2095 23.3685 33.4205 23.5795C33.6315 23.7905 33.75 24.0766 33.75 24.375C33.75 24.6734 33.6315 24.9595 33.4205 25.1705C33.2095 25.3815 32.9234 25.5 32.625 25.5H22.125C21.8266 25.5 21.5405 25.3815 21.3295 25.1705C21.1185 24.9595 21 24.6734 21 24.375ZM22.125 28.5C21.8266 28.5 21.5405 28.6185 21.3295 28.8295C21.1185 29.0405 21 29.3266 21 29.625C21 29.9234 21.1185 30.2095 21.3295 30.4205C21.5405 30.6315 21.8266 30.75 22.125 30.75H28.875C29.1734 30.75 29.4595 30.6315 29.6705 30.4205C29.8815 30.2095 30 29.9234 30 29.625C30 29.3266 29.8815 29.0405 29.6705 28.8295C29.4595 28.6185 29.1734 28.5 28.875 28.5H22.125Z" fill="#7F2AE8"/>
</svg>
